<svg viewBox="0 0 184.22 125.93" xmlns="http://www.w3.org/2000/svg" xmlns:xlink="http://www.w3.org/1999/xlink"><linearGradient id="a" gradientUnits="userSpaceOnUse" x1="94.3" x2="122.04" y1="63.86" y2="63.86"><stop offset="0" stop-color="#fff"/><stop offset=".07" stop-color="#fef6f8"/><stop offset=".18" stop-color="#fcdde6"/><stop offset=".31" stop-color="#f8b6c8"/><stop offset=".47" stop-color="#f37f9f"/><stop offset=".54" stop-color="#f1668d"/><stop offset=".62" stop-color="#f27594" stop-opacity=".88"/><stop offset=".8" stop-color="#f595a3" stop-opacity=".62"/><stop offset=".93" stop-color="#f7a9ac" stop-opacity=".46"/><stop offset="1" stop-color="#f8b1b0" stop-opacity=".4"/></linearGradient><linearGradient id="b" x1="93.39" x2="106.36" xlink:href="#a" y1="89.62" y2="89.62"/><linearGradient id="c" x1="94.46" x2="136.98" xlink:href="#a" y1="66.54" y2="66.54"/><linearGradient id="d" x1="93.97" x2="94.97" xlink:href="#a" y1="121.6" y2="121.6"/><linearGradient id="e" x1="95.61" x2="157.06" xlink:href="#a" y1="72.4" y2="72.4"/><linearGradient id="f" x1="94.27" x2="97.64" xlink:href="#a" y1="120.78" y2="120.78"/><linearGradient id="g" x1="98.99" x2="175.76" xlink:href="#a" y1="81.37" y2="81.37"/><linearGradient id="h" x1="94.56" x2="174.58" xlink:href="#a" y1="98.3" y2="98.3"/><linearGradient id="i" gradientUnits="userSpaceOnUse" x1="64.38" x2="92.13" y1="63.4" y2="63.4"><stop offset="0" stop-color="#ee2a7b"/><stop offset="0" stop-color="#f8b1b0" stop-opacity=".4"/><stop offset=".06" stop-color="#f8acae" stop-opacity=".44"/><stop offset=".17" stop-color="#f69ea7" stop-opacity=".55"/><stop offset=".31" stop-color="#f4879d" stop-opacity=".73"/><stop offset=".47" stop-color="#f1688e" stop-opacity=".98"/><stop offset=".48" stop-color="#f1668d"/><stop offset=".54" stop-color="#f37fa0"/><stop offset=".64" stop-color="#f7adc2"/><stop offset=".75" stop-color="#fbd0dc"/><stop offset=".84" stop-color="#fdeaef"/><stop offset=".93" stop-color="#fffafb"/><stop offset="1" stop-color="#fff"/></linearGradient><linearGradient id="j" x1="79.9" x2="93.03" xlink:href="#i" y1="88.76" y2="88.76"/><linearGradient id="k" x1="49.43" x2="92.21" xlink:href="#i" y1="66.41" y2="66.41"/><linearGradient id="l" x1="91.96" x2="92.45" xlink:href="#i" y1="121.56" y2="121.56"/><linearGradient id="m" x1="29.36" x2="91.32" xlink:href="#i" y1="72.36" y2="72.36"/><linearGradient id="n" x1="90.05" x2="92.15" xlink:href="#i" y1="121" y2="121"/><linearGradient id="o" x1="10.66" x2="91.86" xlink:href="#i" y1="83.33" y2="83.33"/><linearGradient id="p" gradientUnits="userSpaceOnUse" x2="184.22" y1="95.78" y2="95.78"><stop offset="0" stop-color="#007c5e"/><stop offset=".02" stop-color="#02765a"/><stop offset=".17" stop-color="#105041"/><stop offset=".3" stop-color="#1b352f"/><stop offset=".42" stop-color="#212524"/><stop offset=".51" stop-color="#231f20"/><stop offset="1" stop-color="#007e5e"/></linearGradient><path d="m121.16 47.57-2.51 7.22-24.35 69.21 12.06-64.8v-.23l.06-.33 10.58-54.89s7.54 30.07 4.16 43.82z" fill="url(#a)" transform="translate(0 -3.27)"/><path d="m106.36 55.93-12.06 64.78-.21.61h-.01l-.35 1.01-.02.06-.32.91.18-.96.02-.11.13-.67 8.43-43.78.29-1.5z" fill="url(#b)"/><path d="m134.21 55.31-39.21 68.69-.51.35 24.19-69.55 2.46-7c0-.08 0-.16 0-.23l13.53-38.83s5.49 29.1-.46 46.57z" fill="url(#c)" transform="translate(0 -3.27)"/><path d="m94.97 120.72-1 1.75.49-1.4z" fill="url(#d)"/><path d="m154.54 59.68-56.89 62.51-2 1.37 58.35-102.32s6.5 28.61.54 38.44z" fill="url(#e)" transform="translate(0 -3.27)"/><path d="m97.64 118.92-3.37 3.71 1.34-2.34z" fill="url(#f)"/><path d="m174.58 70.42-75.58 50.86 72.28-79.81s7.26 17.58 3.3 28.95z" fill="url(#g)" transform="translate(0 -3.27)"/><path d="m174.58 70.42a14 14 0 0 1 -2.51 4.58l-77.51 51.18 4.44-4.89z" fill="url(#h)" transform="translate(0 -3.27)"/><path d="m92.13 123.53-24.36-69.22-2.52-7.22c-3.37-13.76 4.12-43.82 4.12-43.82l10.53 54.73z" fill="url(#i)" transform="translate(0 -3.27)"/><path d="m93.03 122.82-.22-.62-.04-.11-.19-.55-.45-1.28-12.23-65.57 4.11 21.31.12.61 8.68 45.09.08.43z" fill="url(#j)"/><path d="m92.21 124.57-.21-.17-39.79-69.57c-6-17.47-.46-46.57-.46-46.57l13.5 38.83v.23l2.47 7z" fill="url(#k)" transform="translate(0 -3.27)"/><path d="m92.45 121.99-.49-.86.25.17z" fill="url(#l)"/><path d="m91.32 124-1.27-.86-58.17-63.95c-6-9.82.51-38.43.51-38.43z" fill="url(#m)" transform="translate(0 -3.27)"/><path d="m92.15 122.15-2.1-2.31 1.27.86z" fill="url(#n)"/><g transform="translate(0 -3.27)"><path d="m91.86 125.69-77.5-51.21c-8.77-10.37.79-33.5.79-33.5z" fill="url(#o)"/><path d="m92.81 126.13-1.21.54" fill="#080808"/><path d="m90.74 124.17c0-.27-.12-.61-.24-1.08a161.55 161.55 0 0 1 -3.11-17.41c0-.23-.07-.46-.12-.81a16.6 16.6 0 0 1 -3.63 1.42 11.08 11.08 0 0 1 2-1.65.48.48 0 0 0 .49-.08c.71-.32.83-.85.72-1.71-.24-1.74 0-3.48-.12-5.24a3.51 3.51 0 0 0 -.5-2c-.3-.42-.38-.86.27-1a.44.44 0 0 0 .37-.5c-.07-1.12.33-2.2 0-3.34a1.45 1.45 0 0 1 0-.29c.4-1.31-.62-2.26-1-3.38-.13-.37-.81-.69-.31-1.13s.74.24 1.07.47c.12.07.2.2.33.24.22-.91-.56-2.52-2.38-4.85-.5-.94-.82-2-1.27-2.91 0-.27 0-.51.25-.62 1 .27 1 1.35 1.47 2a21.38 21.38 0 0 0 2.27 3.1c.26-1.54.63-2.85-.34-4.21-.4-.56-.68-1.21-1.07-1.79-.25-.36-.41-.82 0-1.1s.77.09 1 .49a3.84 3.84 0 0 1 .39.85c1.34-1.91 1.22-4.35 1.77-6.53a6.43 6.43 0 0 0 -.25-2.45c-.16-1.12-.12-1.16 1-.76a19 19 0 0 0 -1.35-5.42c0-.6-.41-1.22 0-1.78a.42.42 0 0 1 .47 0 1.63 1.63 0 0 1 .43.51 32.6 32.6 0 0 1 1.25 3.79c-.25-1.36-1.14-2.93-.82-4.64.5-.39.78 0 1 .43s.27 1 .45 1.5a10.37 10.37 0 0 1 -.34-1.21c-.18-.88 0-1.12.87-.89.51.13.53-.21.66-.5.27-.64 0-1.36.08-2s1-.53 1.28-1.19c.57-1.34.08-2.58-.36-3.86a.88.88 0 0 1 .13-.73c.78-.1.82-.07 1.25 1.09 0-.49 0-1 .47-1.09.74-.15 1-.75 1.31-1.32s.61-1.32 1-1.9a2.68 2.68 0 0 0 0-3c-.15-.5 0-1-.28-1.54a.69.69 0 0 1 .12-.77.43.43 0 0 1 .31-.08c.65.24.54.89.74 1.38 0 .15.17.29.16.46 0-.23-.17-.41-.22-.63a.58.58 0 0 1 .14-.53c.57-.28.74.14.91.58a7.38 7.38 0 0 0 2.54-3.12c.75-1.27 1.67-2.39 2.53-3.57.3-.4.72-.8.33-1.44-.45-1.29.5-1.48 1.24-1.83 1.28.3 1.85-.33 1.54-1.71-.07-.27-.13-.56-.19-.83a.61.61 0 0 0 -.36-.47c-.27-.09-.41.08-.54.28a28.9 28.9 0 0 1 -5.22 5.43c-.14.13-.23.31-.37.43-2.56 2.9-5.59 5.27-8.23 8.08a23.12 23.12 0 0 0 -5.87 10.19 31.47 31.47 0 0 0 -.38 12.43c.09.66.2 1.3.24 2 0 .42 0 .86-.43 1s-.72-.25-.94-.6a22.11 22.11 0 0 1 -2.73-6.22 8.74 8.74 0 0 0 -.53-1.72 21.45 21.45 0 0 0 -1.18 5.69 24.36 24.36 0 0 0 .18 4.66 22.88 22.88 0 0 0 .91 4.49c.09.25.15.51-.11.63s-.56-.07-.74-.35a20.37 20.37 0 0 1 -1.39-2.58 28.68 28.68 0 0 0 3.09 8.44c.27.46.63.83.88 1.28.71 1.28.88 2.78 1.67 4a.39.39 0 0 1 -.13.54.52.52 0 0 1 -.64-.06 15.13 15.13 0 0 1 -1.63-1.36c1.14 1.29 2 2.8 3.1 4.11a.5.5 0 0 1 .12.57c-.13.25-.37.23-.6.14l-.76-.25c-.33-.1-.67-.19-1-.3a7.39 7.39 0 0 0 -1-.88c.57.33 1 1.17 1.71 1.73a13.74 13.74 0 0 1 1.43 1.78l.25.46c.38.77.16 1.19-.65 1.07a11.7 11.7 0 0 1 -2-.27 2.6 2.6 0 0 1 -.82-.36c.36.25.79.3 1.15.57a4.35 4.35 0 0 0 1.57 1.06.68.68 0 0 1 .53.87c-.09.43-.45.38-.78.35a15.64 15.64 0 0 1 -3.76-.79 16 16 0 0 1 -2.21-.72 8.76 8.76 0 0 0 3.09 1.93c.64.29.62.56 0 1 .46.28 1 .42 1.42.73a2.87 2.87 0 0 0 1.52.41.67.67 0 0 1 .64.56c.07.34-.14.49-.37.62l-.93.5a2.6 2.6 0 0 1 -1 .39c-.13 0 0 0-.1 0h.13c0 .13 0-.09.1 0a4 4 0 0 0 1.75-.09.63.63 0 0 1 .8.4c0 .61-.15.88-.76.6a7.51 7.51 0 0 1 -6.9-2.2 8.27 8.27 0 0 0 5.76 0 16.3 16.3 0 0 1 -9.15-8.08 32.93 32.93 0 0 0 8.51 3.7c-2-1.5-4.15-2.89-5.45-5.26a25.92 25.92 0 0 0 5.94 2.8 30.64 30.64 0 0 0 -7.28-7.52c1-.35 1.54-.17 6 2.14a42 42 0 0 1 -3.42-6.1c.86.56 1.33 1.41 2.23 1.92-2.59-5.47-4.08-10.93-3.23-16.86.52.6.44 1.27.83 1.81 0-5.51 1.16-10.59 4.18-15a24.78 24.78 0 0 0 1.24 11c0-.57-.11-1.14-.16-1.7-.48-5.59-.08-11 3-15.48a44.22 44.22 0 0 1 8.87-9.59 58.58 58.58 0 0 0 9.92-9.74c.43-.56.78-1.17 1.2-1.81a8.24 8.24 0 0 1 .56 2.13 1.62 1.62 0 0 0 .34-1.32 3.93 3.93 0 0 1 1.26-2.88 40.48 40.48 0 0 0 6.46-8.48l.92 3.16a6.61 6.61 0 0 0 0-2.87 1.81 1.81 0 0 1 .39-1.62 13.2 13.2 0 0 0 2.88-11.33 15 15 0 0 1 2.13 5.48 33 33 0 0 1 -3.88 24.24c-.36.63-1 .72-1.52.9a10.21 10.21 0 0 0 -3.14 1.66l2.06-.2c.06.45-.29.62-.49.89a46 46 0 0 0 -7.16 12.66 17.39 17.39 0 0 0 -1 8 1 1 0 0 1 -.44 1 37.61 37.61 0 0 0 -4.45 4.64c1.79-.89 3.35-2.18 5.22-3.36a29.51 29.51 0 0 1 -3.14 5.19c1.26-.48 2-1.42 2.91-2 1.5 6.94-.07 17.25-9.39 23.37a18.09 18.09 0 0 0 6.1-3.82c-.46.8-.9 1.61-1.38 2.39a38.64 38.64 0 0 1 -6.71 8.6c-.06 0-.06.18-.08.26 0 .51-.41.73-.74 1a2.19 2.19 0 0 1 -1 .25c-.7-.24-.48-.55-.11-.83a18.29 18.29 0 0 0 2.92-3.16 9.83 9.83 0 0 0 .87-2.44c.15-.32-.19-.47-.48-.45-.55 0-1.1 0-1.66 0-.35 0-.78 0-.93-.44s.16-.75.51-1a19.31 19.31 0 0 0 4-3.3 29.1 29.1 0 0 0 6.37-10.11 11.06 11.06 0 0 1 -2 3.55c-.28.32-.54.75-1 .42s-.32-.82-.18-1.22a26.4 26.4 0 0 0 1.47-6.27c0-.07 0-.13 0-.2 0-.61.29-1.42-.21-1.75s-1.19.15-1.67.52c-1 .72-2.17 1-3 1.85a.43.43 0 0 1 -.69-.12.52.52 0 0 1 .13-.72c.8-.77 1.58-1.58 2.38-2.36a4.67 4.67 0 0 0 1-1.5 4.06 4.06 0 0 0 -2.27 1 4.19 4.19 0 0 1 -.54.4c-.23.12-.47.25-.72 0s-.22-.56-.11-.85a12.16 12.16 0 0 1 1.72-2.72 33.3 33.3 0 0 1 4-4.49 1.76 1.76 0 0 0 .57-1.43 25.58 25.58 0 0 1 1.56-9 29.71 29.71 0 0 1 5.59-9.81c.1-.12.19-.24.28-.37a.5.5 0 0 0 .16-.34c-.27-.23-.56-.15-.85-.16s-.75 0-.93-.47 0-.78.34-1a14.93 14.93 0 0 1 3-2.2 21.85 21.85 0 0 1 2.98-1.46 1.92 1.92 0 0 0 1-1 36.31 36.31 0 0 0 3.77-10.26 28 28 0 0 0 .14-10.12 7.29 7.29 0 0 1 -.17-2 10.48 10.48 0 0 1 -.57 3 15.07 15.07 0 0 1 -1.41 2.81l-.22.16a1.51 1.51 0 0 0 -.92 2c.06.19 0 .46.25.51s.3-.21.39-.37a6.67 6.67 0 0 0 .92-2.05c.08-.47.39-.83.9-.63s.44.66.32 1a46.68 46.68 0 0 1 -2.46 6.95 33.85 33.85 0 0 1 -3.25 5.17c-.36.47-.28 1.35-1 1.39.16-.1.41-.22.66-.34a.48.48 0 0 1 .57.09c.2.47-.07.7-.37.9s-.6.33-.88.53a3.61 3.61 0 0 0 -1.52.81 3.79 3.79 0 0 0 .74-.52 1.06 1.06 0 0 1 .78 0 .51.51 0 0 1 .15.33c-.12.67-.75.75-1.15 1.11a1.07 1.07 0 0 1 -.67.33 2.29 2.29 0 0 0 -1.87 1.2c-1.95 2.82-4 5.53-5.89 8.42a2 2 0 0 0 -.34 1.57.62.62 0 0 1 -.12.26 4 4 0 0 0 -2 2.22c-.49 1.2-1.45 2.13-1.62 3.51 0 .08-.09.14-.13.22 0-.09 0-.13.12-.1s-.06 0 .07-.07a.67.67 0 0 1 .17-.07c.35 0 .66-.31 1-.12a.51.51 0 0 1 .17.3c-.32.64-.93 1-1.38 1.49-1.11.17-1.58 1-2 2a20.3 20.3 0 0 1 -1.34 3.19 1.27 1.27 0 0 0 .35 1.8.56.56 0 0 1 -.14.53c-.25.31-.7.36-.8.67a1.41 1.41 0 0 1 .54-.45 3.5 3.5 0 0 1 1.34-.89.42.42 0 0 1 .55.23 3.66 3.66 0 0 1 -1.26 1.68 3.83 3.83 0 0 0 -.86.89.87.87 0 0 1 -.23.16c-1.06.44-1.11.62-.35 1.45a.79.79 0 0 1 -.2.7 1.74 1.74 0 0 0 -1.14 1.17c-.78 2.84-1.38 5.74-1.92 8.65-.06.31-.2.69.3.83a.79.79 0 0 1 .26.13c.1.1.18.22.27.33.27.35.51.15.77 0 .59-.3 1.16-.63 1.76-.91.23-.08.48-.12.62.13s0 .45-.23.59l-.39.29a31.55 31.55 0 0 1 -3 1.79c-1.09.11-1.21 1-1.28 1.91s-.23 1.54-.29 2.32c0 .4 0 .7.5.66a8.36 8.36 0 0 1 3.38-1.91c.28 0 .57-.14.79.21 0 .85-.68.93-1.15 1.27-.71.57-1.62.8-2.16 1.31a11.3 11.3 0 0 1 1.42-.85c.33-.15.64-.32.94.11a.44.44 0 0 1 0 .34 22.18 22.18 0 0 1 -3.28 1.87c-.88.29-.81 1.2-.9 1.89-.22 1.53-.29 3.1-.37 4.66 0 .33-.11.71.39.81.76-.17.76-.17 1.39.49a.46.46 0 0 1 .63.31c-.22.93-1.06 1.19-1.68 1.67-.87.35-.87.35-.17 1.15a.73.73 0 0 1 0 .44 2.88 2.88 0 0 0 -.65 2 9.23 9.23 0 0 0 .38 3.75c.28.4.54.82 1 1 0-.42-.33-.6-.52-.87a.66.66 0 0 1 -.11-.77.51.51 0 0 1 .77-.13 2.26 2.26 0 0 0 1.54.43l2.87 1.9a9.94 9.94 0 0 1 -3.85-1.07 9.82 9.82 0 0 1 2 4.47 31.88 31.88 0 0 0 -4.24-4.13 32.6 32.6 0 0 0 1 6.71 17.23 17.23 0 0 0 1.09 3.46 1.46 1.46 0 0 1 .12 1 58 58 0 0 0 -.73 9 2.79 2.79 0 0 0 .39 1.8" fill="#080808"/><path d="m97 80.84-.64.08a.32.32 0 0 1 -.09-.32 5.86 5.86 0 0 1 2.19-1.7 18.65 18.65 0 0 1 1.66-1.13c.29-.12.33-.43.34-.74s.23-.59.19-.93c.24-.75 0-1.67.57-2.3 0 0 .15 0 0-.15-.79-.81-.27-1.67-.2-2.51a4.48 4.48 0 0 1 .57-.33c-1.13.61-2.14 1.4-3.26 2-.48 0-.84.41-1.31.48-.12 0 0 0-.1 0-.45.05-.94.72-1.35 0s.29-.93.61-1.3.45-.45.65-.71c.92-.31 1.31-1.26 2-1.83a7 7 0 0 1 1.21-1c-.86.44-1.54 1.29-2.67 1.13-.52-.06-.78-.42-.58-.85.46-1 .52-2.14 1.23-2.87-.06 0-.14.19-.25.31a.47.47 0 0 1 -.69.08.6.6 0 0 1 -.11-.83c.27-.51.78-.74 1.17-1.12 1-1 2.29-1.83 3.31-2.9.21-.23.51-.38.56-.75a2 2 0 0 0 -.1-.21c-.23-.32-.49-.09-.66 0-.32.16-.61.23-.83-.11s0-.62.24-.88.49-.31.65-.46c-.61.08-.84 1.08-1.69.83l-.11-.1h-.44c-.25-.57.3-.52.49-.75a7.33 7.33 0 0 1 1.9-1.61 2 2 0 0 0 .94-1.31c.14-.49.33-1 .86-1.1h.09c-.06 0-.13 0-.2 0a1.31 1.31 0 0 0 -1.7.16c-.67.75-2 .76-2.2 2-.21.33-.53.58-.52 1 .19.32.69.2.78.64a.48.48 0 0 1 -.12.29c-.48.2-.77.88-1.46.57-.51-.13-.69.57-1.3.44a14.62 14.62 0 0 1 1-3c.31-.91.72-1.78 1-2.7a3.25 3.25 0 0 1 2-2.07c.78.86-.15 1.34-.19 2 .56-.61 1.54-.56 2.2-1-.29.11-.63.48-1 0a1 1 0 0 1 .08-1.3c.2-.3.56-.46.65-.86l-.09-.17c-.22-.5.07-.75.35-1 .88-.19 1.5-.87 2.36-1.13-.75-.23-1-.63-.48-1 .87-.72 1.34-1.79 2.28-2.5s1.62-2.29 2.58-3.39a4.58 4.58 0 0 0 -1.58.29c-.68 0-.65-.33-.41-.79a1.69 1.69 0 0 1 1.31-.72 2.69 2.69 0 0 0 1.13-.5c.47-.3-.15-.1-.12-.22-1.44-.1-2 1.09-2.67 2a9 9 0 0 0 -.56 1c.25-.23.4-.71.91-.67s1-.59 1.32-.06-.43.84-.76 1.18a10.54 10.54 0 0 1 -1.14.85c-.81.06-1.34.94-2.25.71-.52 0-.87-.07-.47-.7 1-1.56 2-3.13 3-4.67.8-1.18 1.71-2.27 2.47-3.47a7.28 7.28 0 0 1 3.51-3c.32.31.13.57 0 .77s-.52.78-.82 1.14a1.32 1.32 0 0 1 -.57.79c-.34.52-.91.79-1.3 1.35a6.39 6.39 0 0 1 2.92-2.12c.29-.19.67-.14.57-.82-.07-.45.69-.82 1.18-1.1a2.65 2.65 0 0 0 .42-.33 1.7 1.7 0 0 0 .89-.69 45.43 45.43 0 0 0 4.19-9 7 7 0 0 1 .2-.79 21.06 21.06 0 0 1 .55-2.56 7.14 7.14 0 0 0 -.4 2c-.22.65-.72 1.11-1 1.74a6.69 6.69 0 0 0 -.53 1.64 2.41 2.41 0 0 1 -1.15 1.44 1.5 1.5 0 0 0 -.7 1.3 6.44 6.44 0 0 0 -.93 1.56c-.42.44-1 .69-1.35 1.2a6.48 6.48 0 0 1 -1.81.78 45 45 0 0 0 4.74-6.84 28.23 28.23 0 0 0 2.72-8.13c-.84 1.33-1.33 2.9-2.47 4.06-.71-2.2-.46-3.44.8-4.11a1 1 0 0 1 .09.86c.14-.28 0-.64.08-1s0-.44.1-.58a14.53 14.53 0 0 0 2.06-6.13 20 20 0 0 1 1 4.87c.65 7.09-1.32 13.32-4.38 19.19a1.78 1.78 0 0 1 -1.26.94 13 13 0 0 0 -5.72 3.41c-.21.19-.55.37-.39.73s.53.2.81.19c.51 0 1-.06 1.53-.1.12.48-.15.65-.34.85a29.52 29.52 0 0 0 -7.65 17 3.87 3.87 0 0 0 -.09 1.43c.47 1.86-.63 2.77-1.68 3.79a30.34 30.34 0 0 0 -4.55 5.8.84.84 0 0 0 -.11.57c1.09-.81 2.34-1.29 3.47-2 .23-.15.45-.55.74-.28s0 .62-.16.88a23.46 23.46 0 0 1 -3.42 3.82 3.48 3.48 0 0 0 -.57.73 35.78 35.78 0 0 0 4.73-2.82c.25-.18.49-.53.83-.36s.27.67.28 1a22.74 22.74 0 0 1 -1.53 8.42 5.32 5.32 0 0 0 -.16.57 1.46 1.46 0 0 0 0 .39 24.87 24.87 0 0 0 3.37-5.3 14 14 0 0 1 -1.57 5.19 26.14 26.14 0 0 1 -9 10c-.21.13-.54.27-.45.57s.51.26.77.23c1-.12 1.9-.29 2.85-.44.24.33 0 .53-.07.77-.5 2.88-2.48 4.52-4.42 6.19-.12.1-.27.18-.23.4.24.17.73-.17.74.23 0 .63-.69.53-.93.79.38-.33 1.28-.26 1.11-1.27l.93-.75.69-.29c.62.42.35.76 0 1.18a18.94 18.94 0 0 1 -2.62 2.29c-.18.17-.39.31-.57.49s-.62 0-.87 0c.52.34.91.06 1.28-.33s.89.14 1.31 0a.35.35 0 0 1 .49.2c.13.31-.09.42-.29.51-.45.21-1.14.12-1.06 1 0 .28-.28.38-.34.62s.44.45.27.79l.09.21c.19.49.21.77-.44.51a16.18 16.18 0 0 0 -1.59-.45c.29.61 1 1.13.94 1.94-.5.08-.6-.45-.9-.69s-.5-.66-.93-.73-.61-.45-.61-.91c0-1.3 0-2.6 0-3.9 0-.62.15-1.14.82-1.27a13.15 13.15 0 0 0 2.57-2 1.26 1.26 0 0 0 .49-1.28c-.32 0-.68.47-1 0l-.61.1c-.17-.66.29-.9.68-1.14a15.11 15.11 0 0 0 1.47-1c-.13-.33 1.38-.17.16-.81a3.63 3.63 0 0 0 -1 0c-.45.08-.89.1-1.09-.47s.2-.8.56-1a11.23 11.23 0 0 0 1.66-1.27 9.08 9.08 0 0 0 3.23-2.87 31.08 31.08 0 0 1 2.87-3.65 4.56 4.56 0 0 1 -2.49 1.62 6.64 6.64 0 0 0 -2.39 1.13c-.34.22-.68.47-.9-.2a.89.89 0 0 1 .07-.28 13.32 13.32 0 0 1 3-2.55 2 2 0 0 0 .88-1.23c-.69.57-1.29.93-1.85 1.34-.33.17-.64.38-1 .01z" fill="#101010"/><path d="m94.35 100.11c-.37-.25-.47-.5 0-.71s.83-.38 1.43-.65c-.73-.23-1.18.07-1.67.06q-.37.3-.69-.12a2.42 2.42 0 0 1 1.17-1.09 7.21 7.21 0 0 0 2-1.65 1.09 1.09 0 0 0 .25-1.11 44.63 44.63 0 0 0 4.31-4 10 10 0 0 1 -1.68 2.72 25 25 0 0 1 -2.16 2.44c-.75.76-1.59 1.42-2.5 2.22 1.34-.17 2.41-.64 3.63-.84-.36.3-.71.62-1.09.89a11.88 11.88 0 0 1 -1.23.75c-.45.23-.92.43-1.61.74a23.8 23.8 0 0 0 4.85.76 8.22 8.22 0 0 1 -4.94 1c-.31-.46-1.17-.18-1.19-1 .19-.29.45-.11.68 0s.45-.05.44-.41z" fill="#0a0a0a"/><path d="m85.58 104.48a.81.81 0 0 0 .62-.55c.08-.26.26-.4.5-.24s.16.41 0 .63-.42.27-.52.52-.44.16-.54-.2a.57.57 0 0 0 -.06-.16z" fill="#373737"/><path d="m86.23 104.84a5.18 5.18 0 0 0 .31-.57c.16-.4 0-.47-.34-.34-.83-.15-1.64.29-2.48-.14.32-.84 1.42-.35 1.72-1.06-.27-.11-.42.79-.9.15a3.46 3.46 0 0 0 1.14-.8 14.07 14.07 0 0 1 -4.68-2.24c.55-.32 1 .27 1.63.07a13.77 13.77 0 0 1 -4.8-3.42 26.17 26.17 0 0 0 8 2.1c-.7-.81-1.59-1-2.09-1.73-.14-.15.43-.08.06-.28-.22-.13-.38-.26-.29-.54.58.08 1.16.19 1.74.23 1 .08 1 0 .5-1-.12-.91-.89-1.27-1.43-1.83l-2.21-2.14a.34.34 0 0 1 -.13-.41 4.68 4.68 0 0 1 2.1 1.24c.42.58 1.12.77 1.57 1.32-.26-.34-.84-.41-.76-1l1.15.36c-1.33-1.93-2.88-3.55-3.78-5.66l2.74 2.37c-.08-1-.84-1.57-1.1-2.37-.1-.31-1-.8 0-1.06a4.53 4.53 0 0 0 -.34-.74 30 30 0 0 1 -4.44-10.8.94.94 0 0 1 .12-1l2.29 4.45a35.21 35.21 0 0 1 -1.14-8.6 21.53 21.53 0 0 1 1.9-8.21 25.76 25.76 0 0 0 3.92 10.07 21.75 21.75 0 0 0 -.27-3.68 42.22 42.22 0 0 1 .37-11.24 21.79 21.79 0 0 1 6-10.86c2.68-2.83 5.66-5.33 8.45-8a.56.56 0 0 1 .63.41.84.84 0 0 1 -.16.74 4.61 4.61 0 0 0 -.87.84 11.19 11.19 0 0 1 -1.83 2.53 3.3 3.3 0 0 0 -.64 1.38.25.25 0 0 1 -.25 0l-.14.08a2.7 2.7 0 0 0 -1.39 2.93c-.31.48-.68-.14-1 0a.79.79 0 0 0 -.48.36l-.28.26a17.89 17.89 0 0 1 -1.89 2.59c-.18.23-.37.45-.57.67a.44.44 0 0 1 -.39 0c-.35-.27-.28-.67-.32-1a3.28 3.28 0 0 0 .39 1.44 3 3 0 0 0 .4 2.64c.12.38 0 .84.48 1.18.37-.75.21-1.94 1.36-2 .8 1.71 1.08 3.37 0 5-.25.38-.4.87-1 .1a4 4 0 0 1 -.21 2.91c-.15.38-.16 1-.65 1s-.31-.7-.65-1.06c-.16.21-.06.44 0 .64.11.4.27.8.34 1.2.11.59.18 1.41-.36 1.51s-.28-.83-.5-1.23c-.32-.75-.18-1.67-.9-2.28h-.15a1.14 1.14 0 0 1 -.46-1.08 3.51 3.51 0 0 0 -.27-1.32.91.91 0 0 1 .23-.72c.15-.13.38-.19.51 0 .9 1 1 .05 1.24-.5a3.33 3.33 0 0 0 -.17-2.1 4.77 4.77 0 0 1 -.27-2.36c-.11 1.37-1 2.27-1.67 3.29a7.22 7.22 0 0 0 .38 3.81c0 .54.35 1.24-.37 1.56l-.26-.1c-.28-.07-.33-.35-.49-.55a5.77 5.77 0 0 1 -.28-1.49c-.06-.36-.17-.59-.55-.46s-.29.63-.36 1a3.67 3.67 0 0 0 -.14 2c.27 1.2-.35 2.3-.06 3.49v.7c0 .65-.11 1.35.78 1.62.18.06.25.39.37.59a7.16 7.16 0 0 1 -.64-1.54 6.14 6.14 0 0 1 .92-3.1c.21-.32.34-.73.85-.62.39 1.3.78 2.6 1.19 3.9a3.24 3.24 0 0 1 0 2.11c-.08.21 0 .54-.31.56s-.33-.3-.46-.5-.17-.28-.41-.66c.16 1.23.82 2.08.61 3.08-.35 1.68-.56 3.4-1 5-.16.61.19 1.59-.74 1.83.07.2.15.39.23.58s.26.51 0 .66-.38-.18-.51-.37c-.47-.67-.93-1.35-1.47-2a10.11 10.11 0 0 0 1.09 2 4.25 4.25 0 0 1 .81 3.4c0 .61-.11 1.22-.17 1.82 0 .27 0 .61-.33.66s-.41-.3-.56-.52c-.72-1.08-1.43-2.16-2.14-3.24a1.53 1.53 0 0 0 -.12-1.12c-.28-.88.07-1.3.94-1.15a1.93 1.93 0 0 1 -.82-1.94 4.54 4.54 0 0 0 -.85-2.68 8.5 8.5 0 0 0 -.81-1.72 7.34 7.34 0 0 1 1 2.45c-.37.65-.61.22-.87-.17s-.44-1.25-1.13-1.47c-.39 2.72.68 5.28 1.23 7.89a.64.64 0 0 1 0 .39.52.52 0 0 1 -.22.17c-.86.08-1-.81-1.43-1.18a5.41 5.41 0 0 1 .57 1.3 43.19 43.19 0 0 0 2.42 4.56 1.71 1.71 0 0 0 .2.27 2.46 2.46 0 0 1 -.17-.27 6.32 6.32 0 0 0 -.22-1.17c-.24-.5-.05-.86.47-.94.26.06.34.31.47.48-.24-.51-.72-.9-.85-1.5.05-.45-.13-1 .54-1.11.66 1.06 1.27 2.17 2 3.17a3.08 3.08 0 0 1 .36 2.65c-.07.46-.33.29-.53 0a5.8 5.8 0 0 0 -1.24-1.29 10 10 0 0 0 .93 1.48 2.63 2.63 0 0 1 .55 2.86c-.84-.25-1.17-1.09-1.75-1.64.58.54.91 1.4 1.75 1.64a21.47 21.47 0 0 1 0 4.39c0 .92-.53 0-.87.09 1.59 1.92.56 4 .93 6.06.1.5 0 1 0 1.54a1.64 1.64 0 0 1 -1.1 2.05z" fill="#231f20"/><path d="m103.65 42.84a89 89 0 0 0 -5.65 10.58 92.22 92.22 0 0 0 -6.46 25 140.7 140.7 0 0 0 -1 27.41c.15 2.19.48 4.39.68 6.59a9.5 9.5 0 0 1 -.17 3.45c-.11.35-.22.81-.63.79s-.51-.54-.6-.88a45.82 45.82 0 0 1 -1-6.86 135.18 135.18 0 0 1 .29-27.07 3.74 3.74 0 0 1 .12-.48c.71.17.5.73.46 1.15-.24 2.63-.37 5.29-.46 7.94a156.17 156.17 0 0 0 .52 19.92c.07.73.11 1.47.19 2.2-.44-4.65-.76-9.29-.81-13.93 0-5.2.17-10.37.49-15.53a95.44 95.44 0 0 1 3.38-18.97 68 68 0 0 1 4.86-12.48 73.11 73.11 0 0 1 4.83-8.33c.19-.28.31-.6.69-.62a.47.47 0 0 1 .27.12z" fill="#e9e9e9"/><path d="m103.46 42.92a59.45 59.45 0 0 0 -5.46 9.28 83.08 83.08 0 0 0 -6.06 18.17 112.45 112.45 0 0 0 -2.44 23.19c-.06 6.18.26 12.37.73 18.57a4.86 4.86 0 0 1 -.13 2 1.45 1.45 0 0 1 -.5-1.14 140 140 0 0 1 -.88-19.38c.1-3.8.23-7.6.57-11.37a4.76 4.76 0 0 0 -.09-.91c.8-9.4 2.8-18.39 6.8-26.63a101.16 101.16 0 0 1 6.77-12.15c.94-1.18 1.74-2.47 2.65-3.68.1-.12.18-.26.29-.39s.31-.26.5-.13.11.43 0 .59c-.96 1.29-1.75 2.72-2.75 3.98z" fill="#d1d3d4"/><path d="m103.32 59.92c-.2.38-.57.51-.9.72-.77 1.16-2 1.74-3 2.63a2.94 2.94 0 0 0 -1 1.36l-1.14 1.25c.66-.08 1-.68 1.78-.65-1.22.75-1 2.34-1.67 3.38-.1.15-.44.38 0 .63.68.37.6.92.37 1.45a8.71 8.71 0 0 0 -.41.93l-1.6 1.52c.56.11.83-.2 1.15-.32.69.45.25 1 .16 1.43a6.27 6.27 0 0 1 -3.06 1.3l-.17.06c-.42-.23-.35-.6-.29-1 .58-3 1.2-5.93 2-8.83a5.34 5.34 0 0 1 .83-1.52l.36-.46a2.55 2.55 0 0 1 1.2-1.68c1.85-.52 3.36-1.97 5.39-2.2z" fill="#3b3b3b"/><path d="m100.79 76.94a1.07 1.07 0 0 1 -.4 1.15 37.45 37.45 0 0 1 -4.08 2.65 2.43 2.43 0 0 0 -2.23-.18c-.32.1-.66.18-.86-.23s.13-.56.32-.75c.55-.54 1.43-.65 1.87-1.29a6.67 6.67 0 0 1 2.68-1.82 11.45 11.45 0 0 1 -1.09.53.38.38 0 0 1 -.5-.22c-.08-.16-.07-.44 0-.46.64-.07 0-.62.25-.84s.44-.09.42-.4l-.35.11a.47.47 0 0 1 -.24-.66c.77-.89 1.91-1.2 2.84-1.85.24-.17-.11-.13-.06-.21a.43.43 0 0 1 0-.45c.53-.32 1-.81 1.7-.71l.23 2c.35.14.44-.37.78-.26 0 .41-.41.51-.58.77s-.35.37-.25.61.45 0 .68.1c-.2.48-.77.61-.85 1.15.21.47.61-.14.82.25a.15.15 0 0 1 0 .09.22.22 0 0 1 0 .08 14.27 14.27 0 0 0 -3.61 2.17c.79-.48 1.42-1.34 2.51-1.33z" fill="#1d1d1d"/><path d="m96 87.57c-.56.85-1.53 1.18-2.4 1.87a3.71 3.71 0 0 0 2.15.16c.85.49.33 1 .18 1.57a27.82 27.82 0 0 0 -2.7 1.89c-.46.18-.83.57-1.45.57 0-.71.64-.73 1.12-1.27l-.89.39a.68.68 0 0 1 -.49-.71 53.68 53.68 0 0 1 .48-5.83c.14-1 .92-1.15 1.56-1.51l.42-.22a4.19 4.19 0 0 1 2.17-.63c.49 0 .83-.43 1.28-.59.27-.1.58-.48.84-.05s-.16.66-.41.85c-.83.6-1.68 1.2-2.52 1.79a12.14 12.14 0 0 0 -1 1c.09 0 .13-.18.25-.24 1-.36 1.89-1.07 2.89-1.5.22-.07.47-.12.61.14s-.08.36-.2.5c-.67.59-1.47 1-1.89 1.82z" fill="#3b3b3b"/><path d="m96.78 75.5c.44.6.88 0 1.37.12-.36.46-1 .47-1.42 1.08 1 0 1.6-.79 2.51-.8-2.27.83-3.29 3.39-5.59 4.2a9.39 9.39 0 0 0 1.85-.42c.72-.31.94-.16.82.65v.41a1.21 1.21 0 0 0 0 .18 30.9 30.9 0 0 0 -3.59 2.14c-.39-.12-.49-.41-.45-.8.14-1.37.35-2.73.55-4.09 0-.36.36-.59.53-.89z" fill="#3b3b3b"/><path d="m103.46 42.92c.76-1.49 1.81-2.77 2.6-4.25a18.08 18.08 0 0 0 -2.3 2.84c-.3.37-.52.83-1 1a32.31 32.31 0 0 1 3.67-5.38c3.2-3.84 6.31-7.76 9.41-11.69.12-.16.19-.44.59-.38-3.82 6.33-8.69 11.71-12.8 17.74z" fill="#e9e9e9"/><path d="m105.2 36.31a1.53 1.53 0 0 1 -.11 1.72c-1.69 2-3 4.36-4.53 6.52-.27.39-1 .38-.81 1.17 0 0-.18.14-.21.12a.92.92 0 0 1 -.24-.31c-.22-.49-.14-1.11-.65-1.49a.67.67 0 0 1 -.27-1 2.86 2.86 0 0 1 1.28-.57.81.81 0 0 0 .22-.38 21.9 21.9 0 0 1 2.37-3.1 1.45 1.45 0 0 0 .4-1.49 1.18 1.18 0 0 1 0-.59c.21-.39.22-.87.42-1.27s.31-.66.76-.61.36.56.6.8.57.17.77.48z" fill="#101010"/><path d="m98 45.6c.55 1.27.8 2.43-.11 3.6a18.39 18.39 0 0 0 -1.58 2.8c-.22.44-.44.9-1.06.27 0 .64.3 1.15.1 1.65-.08.2-.14.51-.41.45s-.27-.28-.37-.46c-.37-.65-.2-1.53-.88-2.06-.73-.26-.38-1-.59-1.42a.51.51 0 0 1 .15-.41 1.33 1.33 0 0 0 1-.65c0-.08.12-.19.2-.19 1.12 0 1.23-1.08 1.77-1.69a1.53 1.53 0 0 0 .35-.54.64.64 0 0 1 .37-.32c.21 0 .14-.25.18-.4.22-.23.3-.75.88-.63z" fill="#101010"/><path d="m120.79 23.11c-.18 1.92-1.16 3.48-1.86 5.15a44.28 44.28 0 0 1 -2.16 4.09c-.24.44-.52.85-1.1.82s-1.1 0-1.09-.85l-.09-.16c-.06-.55.38-.61.7-.78a1.68 1.68 0 0 0 1-1.59 2.23 2.23 0 0 0 1.1-1.67c.24-.31.52-.6.77-.9-.26.27-.46.69-1 .43s-.13-.55.07-.72a5 5 0 0 0 1.7-2.11 5.25 5.25 0 0 0 .78-1.18c.24-.46.59-.8 1.18-.53z" fill="#1d1d1d"/><path d="m110.27 27.44c1.63-2.35 3.38-4.58 5.21-6.76.31-.36.57-.35.79.19a2.65 2.65 0 0 1 -.24 2.94 18.4 18.4 0 0 0 -2.22 2.67c-.14.27-.41 0-.61-.09a1 1 0 0 1 -.47-.15c-.78 0-1 .73-1.43 1.11-.3.25-.51.58-1 .22z" fill="#121212"/><path d="m84.33 73.69a5.32 5.32 0 0 1 1 3.6c-.12.79.71 1.46.93 2.3-.42-.22-.58-1-1-.77s-.1.92.1 1.4c.1.25.3.47.25.79-.3.14-.52-.3-.81-.2l-1.27-2.4a6.17 6.17 0 0 1 -1.19-2.3c-.22-.63 0-1 .75-.87-.5-1-1.26-1.89-.89-3.06.38-.1.33.3.45.47s.25.5.41.72c.28.41.31 1 .86 1.23.08-.33-.16-.83.41-.91z" fill="#1d1d1d"/><path d="m82.25 72.18c.38 1.49 1.48 2.76 1.57 4.42-.63-.13-.56-.85-1.06-1 0 1 1.06 1.79.82 2.85v.45c0 .43.17.86.23 1.3s.08.93-.52 1c-.88-2.4-2-4.78-1.57-7.39.11-.72-.35-1.38-.5-2.09.53-.21.47.85 1.03.46z" fill="#3a3a3a"/><path d="m96.34 64.31c-.66 2.78-1.3 5.56-2 8.32a24.82 24.82 0 0 0 -.55 3c-.23.1-.44.36-.7.17s-.09-.52-.09-.8c.46-2.9 1.21-5.71 1.77-8.58a2.84 2.84 0 0 1 1.57-2.11z" fill="#101010"/><path d="m103.74 35.18a1.08 1.08 0 0 0 -.44 1c0 .33.1.71-.34.8a1.06 1.06 0 0 0 -.93.56c-.19.29-.37.55-.77.33l-.46-.46c1.26-1.23 2.48-2.51 3.78-3.69a21.4 21.4 0 0 0 2.35-2.93c.11-.15.17-.4.4-.35s.23.32.27.52c.16.78.3 1.56.48 2.34a1.64 1.64 0 0 1 -.38 1.47c-.48.65-.94.79-1.53.06-.41-.08-.43-.48-.6-.76a.61.61 0 0 1 .15-.73 1.5 1.5 0 0 1 .42.09c.24.12.49.3.71 0s.09-.36-.08-.52c-.57-.41-.54.59-1 .4a9.68 9.68 0 0 1 -1.22 1.49.76.76 0 0 1 -.81.38z" fill="#101010"/><path d="m93.84 93c.5-.34 1-.69 1.52-1 .21-.13.69-.14.54.2-.26.63.07 1.42-.55 2a19.33 19.33 0 0 1 -2.89 2 .5.5 0 0 1 -.63 0c0-.1 0-.19.08-.29-.07-.52-.63-1-.14-1.56z" fill="#3b3b3b"/><path d="m97 80.84 3.56-2.51c-.19 1.28-.33 2.26-1.38 2.86a31.91 31.91 0 0 0 -3 2.23c-.27-.19-.17-.43-.12-.66l-.06-.17a3 3 0 0 1 -.41-.76c.31-.54.92-.68 1.41-.99z" fill="#1c1c1c"/><path d="m93.33 50.41a5.17 5.17 0 0 1 .36 1.48c0 .22.07.44.11.65a7.6 7.6 0 0 0 -.9 2.51c0 .16-.66.19-.82.76a6.65 6.65 0 0 1 -.58-2.3 2.8 2.8 0 0 0 -.12-1.51c-.11-.41-.3-.85 0-1.25a2.82 2.82 0 0 1 -.26-1.44c.34.25.28.62.41.89a4.16 4.16 0 0 1 .55 1.8c.14-.61-.65-1.25-.25-2-.07-.32-.26-.68.19-.83.67.28.48.9.61 1.4a.54.54 0 0 1 .7-.16z" fill="#1d1d1d"/><path d="m86.67 59.17a5.05 5.05 0 0 1 0-1.6c.34-.09.29.32.49.39.43.22.36.64.4 1 .06.62.3 1 .92 1.15l.15.66.37 1.66a22.25 22.25 0 0 0 -1.53 3.66 1.75 1.75 0 0 1 -.85-2.09 14.35 14.35 0 0 0 0-4.34 2.89 2.89 0 0 1 .05-.49z" fill="#1c1c1c"/><path d="m83.31 81.14c.09-.76.19-1.52.29-2.28l1.57 3-.28 1.1c-.27.39.4.73.14 1.12-.44.6.12 1.31-.07 1.93 0 0-.07 0-.09 0-1.21-.64-2.29-3.59-1.74-4.78z" fill="#1d1d1d"/><path d="m94.07 84.76c-1.46.44-1.92 1.53-1.91 3.11s-.27 3.23-.15 4.88c-.87.34-1.06.25-1-.72a62.07 62.07 0 0 1 .65-6.55c.08-.44.37-.58.68-.74.62.33 1-.5 1.62-.24a.25.25 0 0 1 .11.26z" fill="#101010"/><path d="m101.26 51.47a4 4 0 0 1 -1.37.58c0-.83.62-1.29.9-1.89.88-1.93 1.56-4.11 3.62-5.09.3.27.21.53 0 .79-.23.42-.53.78-.73 1.22a1 1 0 0 1 -.12.23c-.21.28-.08.7-.3 1a3.32 3.32 0 0 0 -.79 1.64c-.39.48-.8 1.05-1.21 1.52z" fill="#101010"/><path d="m102.37 51.11c.27.76-.6 1.14-.43 1.94.63.09 1.14-.46 2-.31-1.47 1.14-3.19 1.54-4.48 2.69l1.15-3.13a8.52 8.52 0 0 1 1.76-1.19z" fill="#3b3b3b"/><path d="m96.83 47.15a2.26 2.26 0 0 0 .29 1c-1-.38-1.26-.78-1.13-1.76a2.53 2.53 0 0 1 .89-3.3c.51-.4.47.13.62.37s.06.44.1.65c-.24.74 0 1.59-.28 2.3a1.59 1.59 0 0 1 .16.91c-.28-.06-.28-.36-.43-.52-.32-.08-.17.2-.22.35z" fill="#3a3a3a"/><path d="m93.4 77.28c-.16 1.93-.73 3.79-.63 5.78-.88.36-1 .3-.89-.63.13-1.21.3-2.42.47-3.63a1.64 1.64 0 0 1 1.05-1.52z" fill="#101010"/><path d="m112.08 28.4c.09.77-.53 1.08-.84 1.59a8.48 8.48 0 0 1 -2.16 2.58c.41-1.72-.42-3.82 1.19-5.13a.68.68 0 0 1 .08 1 .58.58 0 0 0 -.14.69c.57.65.6-.13.79-.32s.5-.81 1.08-.41z" fill="#101010"/><path d="m89.88 60.32c.26 1.89 1.23 3.73.81 5.69a29.82 29.82 0 0 1 -1.54-4.59c.19-.41-.11-1.2.73-1.1z" fill="#101010"/><path d="m95.56 81.83c.17-.06.38-.26.53-.08s0 .57-.12.84l-3.48 1.83-.2-.36a14.33 14.33 0 0 1 3.27-2.23z" fill="#393939"/><path d="m112.08 28.4a6.22 6.22 0 0 0 -1.38 1.6c-.18.24-.35.64-.7.53s-.23-.58-.32-.89a1.75 1.75 0 0 1 0-.4c.58-.63 1.07-1.34 1.65-2 .25-.26.48-.56.91-.24a.76.76 0 0 1 .17.77c-.41.05-.33.35-.33.63z" fill="#1c1c1c"/><path d="m114.58 32.32c.1.27 1-.57.58.47-.07.21.35.22.51.38l-.49.26c-1 .22-1.54 1.06-2.42 1.39-.32.12-.65.48-1-.06a5.46 5.46 0 0 0 1.29-1.64z" fill="#3a3a3a"/><path d="m97.05 62a10 10 0 0 1 2.5-2.27c.49.79.34 1.73-.38 2a2.76 2.76 0 0 0 -1.16.8 4.62 4.62 0 0 0 -.81.65c-.15.15-.35.34-.57.09a.53.53 0 0 1 0-.65 3.24 3.24 0 0 0 .42-.62z" fill="#3a3a3a"/><path d="m99.59 72.58.81-.43a13.06 13.06 0 0 1 -3.67 2.42 3.27 3.27 0 0 1 -2.56 1.32l-.17-.34 2.88-1.55a2.85 2.85 0 0 1 2.71-1.42z" fill="#101010"/><path d="m105.93 34 .24.84c-.09.46-.13.94-.8.67-.15-.06-.17 0-.17.79a3.08 3.08 0 0 1 -.27.25c-.21.17-.34.58-.65.44s-.17-.53-.23-.82c.17-1.35.82-2.1 1.88-2.17z" fill="#1c1c1c"/><path d="m94 84.59-.91.46c-.33.18-.59.15-.71-.31l3.7-2 .12.66-.15.09c-.5.76-1.36.78-2.05 1.1z" fill="#3a3a3a"/><path d="m116.38 30c.37.17.26.37.13.64a2.78 2.78 0 0 1 -2 1.57l-.68.33c-.37-.57.08-.7.39-.91.4-.54 1.12-.67 1.48-1.25a.48.48 0 0 1 .68-.38z" fill="#3b3b3b"/><path d="m89.88 60.32c-.32.3-.29.89-.73 1.1-.09-.19-.19-.38-.29-.56l-.18-1.6c.19-.5-.18-1.38.78-1.36z" fill="#1c1c1c"/><path d="m97.05 62-.19 1.17 1.14-.69c.14-.16.21-.09.26.1l-1.56 1.27c-.46-.08-.76.25-1.12.44-.1-1.11.18-1.55 1.47-2.29z" fill="#101010"/><path d="m94.17 75.89 2.56-1.32.12.64c-.78.41-1.56.83-2.35 1.23-.23.12-.56.43-.76.14s.26-.49.43-.69z" fill="#3b3b3b"/><path d="m101.26 51.47a4.15 4.15 0 0 1 .78-1.84c.24-.3.46-.62.91-.54.78.42.31.81.07 1.21l-.74.64z" fill="#393939"/><path d="m84.91 92.45c.41.55 1 .75 1.53 1.2.25.25.55.58.28.87s-.47-.14-.64-.32c-.63-.72-1.57-1.09-2-2z" fill="#1c1c1c"/><path d="m116.38 30-.7.38-.49.24c.14-.64.69-.94 1-1.46.51-.24.69-1.13 1.51-.8a2.2 2.2 0 0 1 -1.32 1.64z" fill="#3a3a3a"/><path d="m95.15 95.88h.75c-.58 1.09-1.6 1.42-2.73 2a1.94 1.94 0 0 1 1.06-1c.67-.23.12-.48 0-.72z" fill="#3b3b3b"/><path d="m83.53 96 1.62 1v.16l-1.35-.32a7.47 7.47 0 0 1 -2.36-1.77 10.18 10.18 0 0 0 2.09.93z" fill="#383838"/><path d="m114.2 31.58-.39.91c-.56.23-1 .7-1.76.54.64-.61 1.18-1.35 2.15-1.45z" fill="#101010"/><path d="m84.54 102.88c.55.07.93-.37 1.53-.48a5.54 5.54 0 0 1 -2.35 1.39l-1.36.13c.78-.66 1.64-.62 2.18-1.04z" fill="#383838"/><path d="m91.77 94.33c.21.94.21.94 1.21.7l-1.07.86c-.27-.11-.7.2-.8-.32a1 1 0 0 1 .66-1.24z" fill="#101010"/><path d="m98 59.63 1.51-.82c.08-.16.23-.23.37-.13s.09.29 0 .43a1.62 1.62 0 0 0 -.74.63l-1.43 1c-.78-.37.1-.49 0-.75z" fill="#383838"/><path d="m104.09 45.7a1 1 0 0 0 .32-.63l.14-.1 1.94-1.24a.67.67 0 0 1 .1.84 1.94 1.94 0 0 1 -2.5 1.13z" fill="#3b3b3b"/><path d="m97.32 46.41c-.19-.82-.53-1.68.28-2.3a3.87 3.87 0 0 1 .4 1.49z" fill="#1d1d1d"/><path d="m112.4 27.76-.4-.76a1.08 1.08 0 0 1 1.07-1.26.63.63 0 0 1 .13.65 1.81 1.81 0 0 1 -.8 1.37z" fill="#1c1c1c"/><path d="m119.34 16.24c.45.89 0 1.49-.45 2.1-.09.12-.2.29-.38.16a.35.35 0 0 1 -.06-.47 4.6 4.6 0 0 0 .72-1.7z" fill="#1c1c1c"/><path d="m91.59 102.26c-.17-.45 0-.4.28-.21a15.9 15.9 0 0 1 1.55 1.63c0 .15.17.35.12.45s-.22 0-.3-.08a12.74 12.74 0 0 1 -1.65-1.79z" fill="#3a3a3a"/><path d="m98.68 44.5a4.89 4.89 0 0 1 .46 1.7c0 .19.1.46-.17.49s-.3-.24-.35-.43c-.13-.44-.24-.87-.36-1.3.07-.23.11-.48.42-.46z" fill="#101010"/><path d="m97.73 60c0 .25-.27.46 0 .75-.32.52-.9.64-1.38.94.02-.96.75-1.28 1.38-1.69z" fill="#101010"/><path d="m98.68 44.5-.42.46c-.2-.53-.41-1.05-.62-1.58l.15-.08c.18-.21.29-.53.66-.43a.25.25 0 0 1 .14.24l.06.93z" fill="#1d1d1d"/><path d="m84.34 93.47v-.29a5.66 5.66 0 0 1 1.77 2c0 .19-.19.11-.31.09z" fill="#383838"/><path d="m91.3 121a.64.64 0 0 1 -.16.72c-.15.14-.31.05-.37-.15a.55.55 0 0 1 .2-.7c.12-.06.24-.01.33.13z" fill="#373737"/><path d="m104.09 45.7a2.74 2.74 0 0 0 2.4-2l1.88-1.24-.09-.19-1 .51c-.36-.68.47-.59.54-1 .81-.06 1.46-.64 2.37-.65a2.32 2.32 0 0 1 -.6 1 22.64 22.64 0 0 0 -2 3 2 2 0 0 1 -1 .95c-.25.11-1.21 0-.3.75.13.11-.19.28-.35.37a5.66 5.66 0 0 0 -1.42.93c.55.19.8-.26 1.35-.21-.51 1.48-1.91 1.6-2.89 2.27 0-.31.26-.61 0-.92a1.18 1.18 0 0 1 .14-.65c.29-.36 0-.55-.23-.75l.42-.91c.13 0 0 .06.1 0a.58.58 0 0 0 .24-.14c-.07 0-.13 0-.2 0-.23-.12-.3-.28-.06-.42a2 2 0 0 0 .7-.7z" fill="#1c1c1c"/><path d="m94 84.59 2-1.08a2.42 2.42 0 0 0 2-.94c.78-.92 2.06-.56 2.84-1.36a19.57 19.57 0 0 1 1.93-1.51 6.87 6.87 0 0 1 -1.43 2.21 26.94 26.94 0 0 1 -5.34 5.66c-.11-.63.32-.89.67-1.2s.7-.64 1-1c0 0 0-.06 0-.08a.25.25 0 0 0 -.09 0c-.25-.31 0-.43.17-.54a4.12 4.12 0 0 0 .9-.59c-1.29.93-2.69 1.87-4 2.93-.27.2-.58.56-.91.12s.16-.56.35-.77a26.79 26.79 0 0 1 3.13-2.37 2 2 0 0 0 .75-.84 29.69 29.69 0 0 1 -3.9 1.54z" fill="#1c1c1c"/><path d="m99.85 59.11c0-.24-.16-.33-.37-.3l-.08-.15c-.13-.16.12-.78-.44-.42a.62.62 0 0 1 -.63 0l-.7-.08a2.9 2.9 0 0 0 1.31-1.16 7.55 7.55 0 0 1 4.33-2.51c.31.22.63.06 1 .07-1.27 1.79-2.41 3.63-4.42 4.55z" fill="#1d1d1d"/><path d="m98.21 62.58-.26-.1c.71-.78 1.66-1.39 1.59-2.71.74-.55 1.47-1.12 2.23-1.64.18-.13.45-.4.67-.1s0 .53-.13.76c-.26.49-.82.58-1.18 1a.75.75 0 0 0 -.24.45c.26-.19.51-.39.78-.57s.46-.27.5-.07c.22 1 .81.12 1.15.37a15.68 15.68 0 0 0 -3.73 2.28c-.19.19-.35.43-.71.06s-.46.12-.67.27z" fill="#1d1d1d"/><path d="m107.86 41.82-.54 1a5.58 5.58 0 0 1 -2.08 1.25 27.5 27.5 0 0 1 2.88-4.18c.37-.44 1-.27 1.54-.44.32.45.1.67-.21 1-.5.51-1.2.69-1.68 1.19-.07.07-.23.08-.14.24s.15-.05.23-.06z" fill="#3b3b3b"/><path d="m97.33 71.62c-.15-.81.31-1.56 0-2.38 1.4-.23 2.45-1.27 3.83-1.58a33.71 33.71 0 0 1 -3.83 3.96z" fill="#1d1d1d"/><path d="m98.42 64.63c-.44-.23-.15-.42 0-.64a9.47 9.47 0 0 1 2.58-2.33c.45-.37.93-.69 1.39-1l.47.06z" fill="#1c1c1c"/><path d="m113.36 35.34a39.35 39.35 0 0 0 -3.77 2.47l1.68-2.32c.4-.58 1.13-.54 1.67-.86a.41.41 0 0 1 .61.11c.18.26-.11.41-.19.6z" fill="#3a3a3a"/><path d="m120.34 21.43 1.1-3.55c.32 1.75-.27 3.13-.34 4.58-.07.2-.25.29-.39.41a.35.35 0 0 1 -.52 0c-.13-.13-.09-.3 0-.47a2.62 2.62 0 0 0 .15-.97z" fill="#1d1d1d"/><path d="m103.27 54.47a26.78 26.78 0 0 0 -4.33 2.53c.06-.22.06-.54.2-.65a9.67 9.67 0 0 1 3.94-2.17c.2-.05.31.06.19.29z" fill="#363636"/><path d="m107.77 41.61c.6-.75 1.65-1.07 1.89-2.17h1.35a.38.38 0 0 1 .42.2c.08.19 0 .32-.14.44a1 1 0 0 1 -.63.41 8.58 8.58 0 0 0 -2.89 1.12z" fill="#1d1d1d"/><path d="m113.36 35.34c.07-.36 0-.64-.42-.48s-1.12.42-1.67.63l.5-.73c.82 0 1.39-.58 2.08-.87a2.83 2.83 0 0 1 1.33-.46l-1.19.9c.51.06.8-.34 1.38 0z" fill="#1d1d1d"/><path d="m98.33 58.25a2.35 2.35 0 0 1 1-.78c.24-.1.51-.45.76-.13s0 .59-.17.82a3 3 0 0 1 -.56.5c-.4.12-.71.48-1.17.45-.11-.34.16-.57.14-.86z" fill="#3b3b3b"/><path d="m99.59 72.58-2.71 1.42a3 3 0 0 0 0-1.19 4.27 4.27 0 0 1 1.3-.45c.44.11.72-.57 1.21-.16z" fill="#1d1d1d"/><path d="m117.68 28.31-1.51.8.94-1.46a4.41 4.41 0 0 1 1.45-1 3.52 3.52 0 0 1 -.88 1.66z" fill="#3b3b3b"/><path d="m120.34 21.43a.62.62 0 0 1 .07.56c0 .22-.22.47 0 .64s.46-.09.68-.17c.08.33-.22.43-.31.65-.94.2-1 1.42-1.91 1.71z" fill="#383838"/><path d="m99.39 72.21-1.21.16 4.72-2.48a4.45 4.45 0 0 1 -1.8 1.44z" fill="#393939"/><path d="m100.79 76.94-3.08 1.86a7.65 7.65 0 0 1 4.16-2.67c-.39.23-.87.37-1.08.81z" fill="#393939"/><path d="m94.35 100.11 1.49.67a6.78 6.78 0 0 1 -2.61-.34c-.2-.27-.06-.35.18-.35z" fill="#383838"/><path d="m93.39 98.69.69.12c-.7.81-1.5-.09-2.24 0 .49-.34.49-.34 1.55-.12z" fill="#373737"/><path d="m95.93 91.17a4 4 0 0 0 -.18-1.57c.33 0 .77-.18.91.33s-.41.87-.73 1.24z" fill="#1e1e1e"/><path d="m96 46.39c.37.59.52 1.33 1.13 1.76-1 .11-1.24 1-1.56 1.8-.17.4-.35.32-1-.45 0 .62.27 1.17 0 1.65-.11.18-.15.48-.44.41s-.24-.31-.3-.5-.08-.7-.4-.93c-.68-.4-.79-1.1-.26-1.4.84-.48.79-1.34 1-2.09l.09-.27c.71.18.52-.45.63-.81.52.03.69.61 1.11.83z" fill="#1c1c1c"/><path d="m88.55 55.31a17.44 17.44 0 0 1 .93-1.7 2.84 2.84 0 0 0 .6-2.52c1.22 1.8 1 3.92 1.69 5.82-.25.28-.47 0-.69-.1s-.35-.26-.53-.09-.5.67-1 .36a1.72 1.72 0 0 1 -.87-1.24 1 1 0 0 0 -.13-.53z" fill="#3b3b3b"/><path d="m83.13 81.24c.23 1.33.27 2.7 1.15 3.86a3.5 3.5 0 0 0 .72.9l.89 1.51a20.64 20.64 0 0 1 -4.97-8.51l.23-.2z" fill="#3a3a3a"/><path d="m103 37.47a1.32 1.32 0 0 1 -.17 1.67c-.54.68-1.39 1.14-1.38 2.24 0 .25-.23.13-.38.15-.47 0-.65.47-.91.78a1.11 1.11 0 0 1 -.41-1.73c.28-.42.72-.77.46-1.41.27-.23.16-.81.67-.82.85.39.89-.37 1.13-.84s.58-.65.99-.04z" fill="#1c1c1c"/><path d="m84.79 70.84c1.3 1.27 1.22 2.65.53 4.27l-1.09-2.11a4.53 4.53 0 0 0 -.74-1.8c-.21-.5-.62-.94-.59-1.53a6.94 6.94 0 0 1 -.54-2.59l.64 1.62c.73.43.81 1.28 1.2 1.93.21.37.33.37.59.21z" fill="#1d1d1d"/><path d="m100.19 39.17c.9.42.5 1 .16 1.4a1.44 1.44 0 0 0 -.21 1.74 2.09 2.09 0 0 1 .08.59c-.06.39-.16 0-.25 0-.55-.54-1 0-1.47.06-.21.16-.38.41-.71.36a1.26 1.26 0 0 1 .2-1.57c.75-.86 1.47-1.75 2.2-2.58z" fill="#3a3a3a"/><path d="m94.16 46.64c.16.77.55 1.57 0 2.24-.15.17-.13.51-.63.36s0 .59-.08.89l-.07.28a1.55 1.55 0 0 0 -.58 1.59 6 6 0 0 1 -.8-2.81 1.38 1.38 0 0 1 0-.3c1.15-.29 1.4-1.55 2.16-2.25z" fill="#3a3a3a"/><path d="m86.67 59.17c.19.71.35 1.42.57 2.12a2.17 2.17 0 0 1 0 1.7 3 3 0 0 0 .32 3.1l.93 2.34c-.21 0-.21-.19-.31-.29a6.15 6.15 0 0 1 -1.75-3.37c0-1.52 0-3 0-4.56a2 2 0 0 1 .24-1.04z" fill="#3a3a3a"/><path d="m89 55.32a1 1 0 0 1 .39.58c.1.29 0 .79.38.84s.32-.42.48-.65.18-.74.58-.67.33.48.42.76a1.14 1.14 0 0 0 .53.73c-.45.69-1.28 1.1-1.3 2.11 0 .07-.19.19-.29.17s-.19-.25-.25-.41c-.17-.51 0-1.13-.56-1.52a1.3 1.3 0 0 1 -.38-1.94z" fill="#1c1c1c"/><path d="m88.45 60.1c-.12.19-.24.38-.35.58l-.4.74c-.36-1.3-.87-2.32-.57-3.46.28-.32.32-.85.81-1.11a14.26 14.26 0 0 1 .51 3.25z" fill="#3b3b3b"/><path d="m89 55.32c.12.65.25 1.3.38 1.94l.09.64-.78 1.36c-.14-.81-.27-1.63-.45-2.44a1.71 1.71 0 0 1 .32-1.51z" fill="#3b3b3b"/><path d="m84.79 70.84.33 1.44a7.26 7.26 0 0 1 -2.12-3.58c.2-.42.41-.45.66 0z" fill="#393939"/><path d="m103 37.47c-.28 0-.71-.38-.68.31a1.21 1.21 0 0 1 -.42 1c-.22.22-.34.7-.67.6s-.26-.64-.35-1l.4-.46 1-1.12c.32-.34.54-.19.69.23z" fill="#393939"/><path d="m84.33 73.69-.33.91c-.32-1.27-1.29-2.33-1.44-3.66l.28-.13z" fill="#3b3b3b"/><path d="m86.77 92.3a11.23 11.23 0 0 1 -2.61-2.84c.84.93 2.34 1.28 2.61 2.84z" fill="#1b1b1b"/><path d="m86.38 64.77 1.75 3.37c-.39-.14-.51-1.14-1.13-.39-.2.24-.31-.23-.33-.43-.14-.85-.21-1.7-.29-2.55z" fill="#1e1e1e"/><path d="m84 98.89c.77 0 1.54 0 2.31.06.23 0 .49 0 .53.35s-.29.39-.53.36c-.71-.1-1.41-.25-2.12-.38-.1-.12-.29-.19-.19-.39z" fill="#1f1f1f"/><path d="m84 98.89.19.39a12.19 12.19 0 0 1 -3.76-1.28c1.24-.07 2.35.68 3.57.89z" fill="#3a3a3a"/><path d="m85 84.06-.92-1.73.78.61c.34 1 1.18 1.62 1.59 2.81a5.07 5.07 0 0 1 -1.45-1.69z" fill="#383838"/><path d="m87.25 90.74c-.27.28-.53.14-.75-.13a6.25 6.25 0 0 1 -1.33-2.12z" fill="#1c1c1c"/><path d="m82.9 69.71 1.15 2.18a1.25 1.25 0 0 1 .18 1.11l-1.15-2.18a1.23 1.23 0 0 1 -.18-1.11z" fill="#3b3b3b"/><path d="m91.34 50.75c.14.56.27 1.12.43 1.67a1.2 1.2 0 0 1 -.27 1.09c-.12-.92-.85-1.85-.16-2.76z" fill="#383838"/><path d="m94.88 45.56a3.07 3.07 0 0 1 .13.5c.06.46.41 1.16 0 1.3s-.45-.67-.74-1z" fill="#363636"/><path d="m82.71 100.54a5 5 0 0 1 2.22.43c-.68.37-1.31.03-2.22-.43z" fill="#383838"/><path d="m91.83 50 .32 1.78-.15.05-.51-1.65z" fill="#333"/><path d="m94.65 87.08a15 15 0 0 1 3.25-2.64 10.81 10.81 0 0 1 1.68-1.06c-.46.86-1.41 1.16-2 1.9-1.02.5-1.85 1.36-2.93 1.8z" fill="#111"/><path d="m93.15 91.58a3.44 3.44 0 0 1 1.85-1.27 3.48 3.48 0 0 1 -1.85 1.27z" fill="#1d1d1d"/><path d="m105.93 34a9.38 9.38 0 0 0 -1.88 2.18c-.1-.34-.21-.68-.31-1 .65-.66 1.11-1.54 2.08-1.81z" fill="#3a3a3a"/><path d="m98.5 42.94c.08-.1.15-.21.23-.3.68-.82.68-.82 1.24.24-.22.26-.62.14-.81.59s-.39-.17-.57-.36z" fill="#1c1c1c"/><path d="m96.83 47.15a2.27 2.27 0 0 1 -.34-1.48c.49.31.42.77.56 1.13z" fill="#1e1e1e"/><path d="m113.07 25.74a5.42 5.42 0 0 0 -1.07 1.26 3.33 3.33 0 0 0 -1.18 1.58c-.18.61-.75.45-1.15.61 0-.69.66-1.05.62-1.74 1.06-.15 1.38-1.22 2.1-1.8.24-.19.49-.65.68.09z" fill="#3a3a3a"/><path d="m114.5 24.14c-.22.16-.36.27-.52.14s-.08-.31 0-.45l1.11-1.91c.09-.14.2-.14.33-.05a.73.73 0 0 1 .34.7c-.08.9-.83 1.16-1.26 1.57z" fill="#3b3b3b"/><path d="m107.16 32.64a1.44 1.44 0 0 1 .18.88 1 1 0 0 1 -.67.85c-.4.09-.48-.38-.66-.64.21-.57.24-1.34 1.15-1.09z" fill="#1d1d1d"/><path d="m107.16 32.64-1.16 1.09-.19-.36a2 2 0 0 1 .58-1.07c.46-.46.7-.3.77.34z" fill="#383838"/><path d="m102.88 48 1.48-.77c-.44 1-.62 1.8-1.39 2.17a1.46 1.46 0 0 0 -.93.25z" fill="#3a3a3a"/><path d="m103.44 47a2.6 2.6 0 0 1 1.62-.9 2.22 2.22 0 0 1 -1.76 1z" fill="#3c3c3c"/><path d="m92.88 122.16.11-.08.26-.17.5-.35.64-.43 2-1.37 1.33-.9 75.65-50.86 8-5.38c1-.69 2.23 0 2.68 1.65a4.83 4.83 0 0 1 .17 1.25 3.55 3.55 0 0 1 -1.22 2.91l-89.6 60.3a1.38 1.38 0 0 1 -1 .24 1.37 1.37 0 0 1 -1.55 0l-89.62-60.33a3.55 3.55 0 0 1 -1.23-2.92 4.43 4.43 0 0 1 .17-1.25c.44-1.6 1.65-2.34 2.67-1.65l8.05 5.42 76.59 51.54 1.34.9 1.27.86.63.43.24.17.12.08.25.16.23.16.18.12.17.12.19-.12.32-.22.36-.24" fill="url(#p)"/></g></svg>